#tb 0: 1/44100
#media_type 0: audio
#codec_id 0: pcm_s16le
#sample_rate 0: 44100
#channel_layout_name 0: 4 channels
0,          0,          0,     4096,    32768, 0x79c9aebf
0,       4096,       4096,     4096,    32768, 0x976aecb9
0,       8192,       8192,     4096,    32768, 0xc4fcb176
0,      12288,      12288,     4096,    32768, 0xdbd5c8cc
0,      16384,      16384,     4096,    32768, 0x4ad6c244
0,      20480,      20480,     4096,    32768, 0x5576ff09
0,      24576,      24576,     4096,    32768, 0x1da9d069
0,      28672,      28672,     4096,    32768, 0xb110d51f
0,      32768,      32768,     4096,    32768, 0x1d82b3ac
0,      36864,      36864,     4096,    32768, 0x7d57e8d5
0,      40960,      40960,     4096,    32768, 0x101dec45
0,      45056,      45056,     4096,    32768, 0x283ebb20
0,      49152,      49152,     4096,    32768, 0xe219f025
0,      53248,      53248,     4096,    32768, 0x45e4e07f
0,      57344,      57344,     4096,    32768, 0x9c88ca64
0,      61440,      61440,     4096,    32768, 0x6acaf815
0,      65536,      65536,     4096,    32768, 0xd797c2b7
0,      69632,      69632,     4096,    32768, 0x26bad858
0,      73728,      73728,     4096,    32768, 0x101dec45
0,      77824,      77824,     4096,    32768, 0x283ebb20
